<svg width="34" height="34" viewBox="0 0 34 34" fill="none" xmlns="http://www.w3.org/2000/svg">
<path d="M16.6909 32.1455C25.2262 32.1455 32.1455 25.2262 32.1455 16.6909C32.1455 8.15563 25.2262 1.23639 16.6909 1.23639C8.15559 1.23639 1.23636 8.15563 1.23636 16.6909C1.23636 25.2262 8.15559 32.1455 16.6909 32.1455Z" fill="#E7EFFF"/>
<path d="M0.927273 4.01818C1.43939 4.01818 1.85455 3.60303 1.85455 3.09091C1.85455 2.57879 1.43939 2.16364 0.927273 2.16364C0.415154 2.16364 0 2.57879 0 3.09091C0 3.60303 0.415154 4.01818 0.927273 4.01818Z" fill="#00C99F"/>
<path d="M31.2182 1.85455C31.7303 1.85455 32.1455 1.43939 32.1455 0.927273C32.1455 0.415154 31.7303 0 31.2182 0C30.7061 0 30.2909 0.415154 30.2909 0.927273C30.2909 1.43939 30.7061 1.85455 31.2182 1.85455Z" fill="#FFA100"/>
<path d="M32.4546 31.8364C32.9667 31.8364 33.3818 31.4212 33.3818 30.9091C33.3818 30.397 32.9667 29.9818 32.4546 29.9818C31.9424 29.9818 31.5273 30.397 31.5273 30.9091C31.5273 31.4212 31.9424 31.8364 32.4546 31.8364Z" fill="#00C99F"/>
<path d="M2.16363 33.3818C2.67575 33.3818 3.0909 32.9667 3.0909 32.4546C3.0909 31.9424 2.67575 31.5273 2.16363 31.5273C1.65151 31.5273 1.23636 31.9424 1.23636 32.4546C1.23636 32.9667 1.65151 33.3818 2.16363 33.3818Z" fill="#FF4D69"/>
<path d="M32.1269 16.6909C32.1256 20.7893 30.4969 24.7195 27.5989 27.6175C24.7009 30.5155 20.7708 32.1442 16.6724 32.1455C16.2551 32.1455 15.844 32.13 15.436 32.096V15.4546L14.5087 15.1455V1.38785C16.6992 1.07895 18.9305 1.24376 21.0518 1.87113C23.1731 2.4985 25.1351 3.57383 26.8052 5.02447C28.4753 6.47511 29.8146 8.26728 30.7327 10.2799C31.6508 12.2926 32.1262 14.4788 32.1269 16.6909V16.6909Z" fill="#A5BCED"/>
<path d="M30.7678 18.2608C31.4314 17.5695 31.8799 16.7003 32.0586 15.7588C32.2374 14.8174 32.1388 13.8443 31.7749 12.9578C31.4109 12.0714 30.7973 11.3098 30.0085 10.7656C29.2198 10.2214 28.2899 9.91805 27.332 9.89248C27.2881 9.89094 27.2439 9.89093 27.2 9.89093C26.3378 9.89229 25.4908 10.1185 24.7428 10.5473C23.9948 10.9761 23.3715 11.5925 22.9345 12.3358C22.5792 12.2271 22.1994 12.2276 21.8444 12.3373C21.4894 12.4469 21.1755 12.6607 20.9434 12.9509L20.4522 13.5654C20.2975 13.7594 20.183 13.9824 20.1157 14.2213C20.0483 14.4601 20.0294 14.71 20.06 14.9563C20.0772 15.0864 20.1083 15.2143 20.1527 15.3377C19.7939 15.33 19.4359 15.299 19.0811 15.245C19.0147 15.0506 18.9423 14.858 18.8598 14.6689L17.9696 12.6341C17.5343 11.6404 17.3094 10.5672 17.3091 9.48232V1.25184C17.2287 1.24566 17.1484 1.24257 17.068 1.24257C16.9413 1.23639 16.8176 1.23639 16.6909 1.23639C15.9671 1.23663 15.2441 1.28724 14.5273 1.38784V8.91173C14.5208 8.90339 14.5152 8.89473 14.5087 8.88639V15.232L14.7109 15.2994C14.7824 15.5147 14.8762 15.7219 14.9909 15.9176C15.2444 16.3442 15.3967 16.8234 15.436 17.3181V30.1333C15.4425 30.1268 15.4481 30.1194 15.4545 30.1129V32.096C15.8625 32.13 16.2736 32.1455 16.6909 32.1455C16.8238 32.1455 16.9567 32.1424 17.0896 32.1393C17.1731 32.1393 17.2565 32.1362 17.34 32.13C17.4327 32.1269 17.5255 32.1208 17.6182 32.1146V24.8778C17.6194 24.1664 17.7171 23.4584 17.9087 22.7732L17.952 22.7769C18.2549 22.8017 18.5671 22.814 18.87 22.814C19.3954 22.8142 19.9201 22.777 20.4402 22.7028C20.8445 22.6446 21.2526 22.6157 21.6611 22.6162C23.0946 22.6168 24.5054 22.9749 25.7658 23.6578L29.3575 25.602C30.6258 23.7873 31.4863 21.7195 31.8796 19.5408L30.3295 18.662C30.4834 18.537 30.6297 18.403 30.7678 18.2608V18.2608Z" fill="#7F96D1"/>
<path d="M31.5953 20.7987C31.2327 22.1129 30.6963 23.3727 30.0004 24.5449L26.3562 22.5698C24.9145 21.7888 23.3008 21.3798 21.6611 21.3798C21.1947 21.3805 20.7289 21.4135 20.2671 21.4787C19.5342 21.5838 18.7918 21.6056 18.054 21.5437L15.4545 21.3273V27.1475C15.4548 27.5885 15.3522 28.0235 15.1547 28.4178C14.8658 28.9957 14.4176 29.4789 13.8632 29.8105C13.3087 30.1421 12.6709 30.3083 12.0251 30.2894C11.3793 30.2706 10.7524 30.0675 10.2182 29.7042C9.68398 29.3408 9.26478 28.8323 9.01 28.2386C8.36588 26.7335 7.46192 25.3534 6.33946 24.1617L5.63473 23.4106C3.86895 21.5341 2.90332 19.0438 2.94256 16.4675C2.98179 13.8912 4.02281 11.4314 5.84491 9.60965L6.256 9.19856C6.90707 8.54729 7.72963 8.09421 8.62805 7.89199C9.52646 7.68977 10.4638 7.74672 11.3311 8.05622C12.1985 8.36573 12.9601 8.91507 13.5276 9.64037C14.095 10.3657 14.4449 11.2372 14.5365 12.1535L14.8364 15.1455L16.898 15.9367C17.9983 16.362 19.1678 16.58 20.3475 16.5797C20.5484 16.5797 20.7462 16.5735 20.9471 16.5611C22.8082 16.443 24.6634 16.8705 26.2851 17.7913L31.5953 20.7987Z" fill="#4E6AFF"/>
<path d="M10.5091 25.6546C10.3945 25.6547 10.282 25.623 10.1844 25.563C10.0867 25.5029 10.0077 25.4169 9.95613 25.3146L9.17505 23.7506C8.70545 22.8093 8.06253 21.9651 7.28002 21.2621C6.56861 20.6219 6.01729 19.8238 5.67036 18.9319C5.32344 18.0399 5.19059 17.079 5.28249 16.1264C5.37438 15.1738 5.68847 14.256 6.19949 13.4469C6.71052 12.6377 7.40424 11.9597 8.22491 11.4673L10.191 10.2875C10.2606 10.2457 10.3378 10.2181 10.4181 10.2061C10.4984 10.1942 10.5803 10.1982 10.659 10.2179C10.7378 10.2375 10.8119 10.2726 10.8771 10.3209C10.9423 10.3692 10.9974 10.4299 11.0392 10.4995C11.0809 10.5691 11.1086 10.6463 11.1205 10.7266C11.1325 10.8069 11.1285 10.8888 11.1088 10.9675C11.0891 11.0463 11.0541 11.1204 11.0058 11.1856C10.9575 11.2508 10.8968 11.3059 10.8271 11.3477L8.86133 12.5272C8.20652 12.92 7.65298 13.4609 7.24522 14.1066C6.83745 14.7522 6.58683 15.4844 6.51348 16.2445C6.44013 17.0046 6.5461 17.7713 6.82288 18.4829C7.09966 19.1946 7.53954 19.8314 8.10715 20.3422C9.00476 21.1487 9.74226 22.1172 10.281 23.197L11.0621 24.7591C11.1094 24.8534 11.1318 24.9582 11.1271 25.0636C11.1225 25.169 11.0909 25.2714 11.0355 25.3612C10.9801 25.4509 10.9026 25.525 10.8105 25.5764C10.7183 25.6277 10.6146 25.6546 10.5091 25.6546V25.6546Z" fill="#323FD4"/>
<path d="M12.9818 21.6364C12.86 21.6366 12.7408 21.6004 12.6397 21.5325L12.2069 21.2435C11.97 21.0862 11.7756 20.8727 11.6411 20.622C11.5067 20.3714 11.4363 20.0913 11.4364 19.8069C11.4361 19.7205 11.4132 19.6356 11.3698 19.5609C11.3264 19.4862 11.264 19.4242 11.1891 19.3813L10.9931 19.2694C10.5372 19.0088 10.1475 18.6467 9.85428 18.211C9.56108 17.7754 9.37229 17.278 9.30259 16.7575C9.23289 16.237 9.28415 15.7075 9.45239 15.21C9.62063 14.7126 9.90132 14.2607 10.2726 13.8893L10.999 13.163C11.1156 13.0504 11.2717 12.9881 11.4338 12.9895C11.5959 12.9909 11.751 13.0559 11.8656 13.1705C11.9802 13.2851 12.0452 13.4402 12.0466 13.6023C12.048 13.7643 11.9857 13.9205 11.8731 14.0371L11.1467 14.7634C10.9102 15.0004 10.7314 15.2886 10.6243 15.6059C10.5172 15.9231 10.4846 16.2607 10.5291 16.5925C10.5736 16.9244 10.694 17.2415 10.8808 17.5193C11.0677 17.7971 11.3161 18.0281 11.6067 18.1944L11.8026 18.3062C12.0669 18.4577 12.2865 18.6762 12.4392 18.9397C12.592 19.2032 12.6725 19.5023 12.6727 19.8069C12.6727 19.8876 12.6926 19.967 12.7306 20.0381C12.7687 20.1093 12.8238 20.1699 12.8909 20.2146L13.3237 20.5039C13.434 20.5774 13.5177 20.6845 13.5625 20.8093C13.6073 20.9341 13.6108 21.0699 13.5725 21.1969C13.5342 21.3238 13.4561 21.435 13.3497 21.5142C13.2434 21.5933 13.1144 21.6362 12.9818 21.6364Z" fill="#323FD4"/>
<path d="M24.6964 21.862C23.7166 21.5414 22.692 21.3787 21.6611 21.3798C21.5127 21.3798 21.3644 21.3829 21.2129 21.3922C21.149 21.1965 21.0365 21.0203 20.8859 20.88C19.9123 19.8004 19.3537 18.4101 19.3095 16.957C19.308 16.8013 19.2713 16.648 19.202 16.5085C19.5823 16.5569 19.9653 16.5807 20.3487 16.5796C20.5496 16.5796 20.7474 16.5735 20.9483 16.5611C21.4437 16.5296 21.9408 16.5369 22.4351 16.5827C22.5221 16.725 22.6299 16.8534 22.755 16.9638C23.3821 17.5484 23.878 18.2594 24.2097 19.05C24.5415 19.8405 24.7016 20.6925 24.6794 21.5495C24.6696 21.6539 24.6753 21.7592 24.6964 21.862Z" fill="#323FD4"/>
<path d="M27.2998 11.1273C26.4239 11.1039 25.568 11.3913 24.8838 11.9386C24.1996 12.4859 23.7312 13.2578 23.5617 14.1174L22.7222 13.5858C22.5936 13.5044 22.4395 13.4732 22.2894 13.4983C22.1393 13.5234 22.0037 13.603 21.9087 13.7218L21.4169 14.3369C21.3652 14.4016 21.327 14.476 21.3045 14.5558C21.2821 14.6355 21.276 14.7189 21.2864 14.8011C21.2969 14.8833 21.3238 14.9625 21.3655 15.0341C21.4072 15.1057 21.4628 15.1682 21.5291 15.2178L25.1062 17.897C25.6742 18.2855 26.3391 18.5083 27.0264 18.5405C27.7138 18.5727 28.3966 18.4131 28.9984 18.0794C29.6002 17.7458 30.0974 17.2513 30.4343 16.6513C30.7712 16.0513 30.9345 15.3694 30.906 14.6818C30.8601 13.7451 30.4639 12.8599 29.7959 12.2015C29.128 11.5431 28.2371 11.1597 27.2998 11.1273V11.1273Z" fill="#FFA100"/>
<path d="M27.2 12.3636C26.5442 12.3636 25.9153 12.6242 25.4515 13.0879C24.9878 13.5516 24.7273 14.1806 24.7273 14.8364C24.7273 15.4922 24.9878 16.1211 25.4515 16.5849C25.9153 17.0486 26.5442 17.3091 27.2 17.3091C27.6099 17.3091 28.003 17.1463 28.2928 16.8564C28.5827 16.5666 28.7455 16.1735 28.7455 15.7636C28.7455 15.3538 28.5827 14.9607 28.2928 14.6708C28.003 14.381 27.6099 14.2182 27.2 14.2182C27.118 14.2182 27.0394 14.2508 26.9815 14.3087C26.9235 14.3667 26.8909 14.4453 26.8909 14.5273C26.8909 14.6093 26.9235 14.6879 26.9815 14.7458C27.0394 14.8038 27.118 14.8364 27.2 14.8364C27.446 14.8364 27.6818 14.9341 27.8557 15.108C28.0296 15.2819 28.1273 15.5177 28.1273 15.7636C28.1273 16.0096 28.0296 16.2454 27.8557 16.4193C27.6818 16.5932 27.446 16.6909 27.2 16.6909C26.8332 16.6909 26.4747 16.5822 26.1697 16.3784C25.8647 16.1746 25.627 15.885 25.4866 15.5461C25.3463 15.2072 25.3096 14.8343 25.3811 14.4746C25.4527 14.1148 25.6293 13.7844 25.8887 13.525C26.148 13.2656 26.4785 13.089 26.8382 13.0175C27.198 12.9459 27.5709 12.9826 27.9097 13.123C28.2486 13.2634 28.5382 13.5011 28.742 13.806C28.9458 14.111 29.0546 14.4696 29.0546 14.8364C29.0546 14.9184 29.0871 14.997 29.1451 15.0549C29.2031 15.1129 29.2817 15.1455 29.3637 15.1455C29.4456 15.1455 29.5243 15.1129 29.5822 15.0549C29.6402 14.997 29.6727 14.9184 29.6727 14.8364C29.672 14.1808 29.4113 13.5523 28.9477 13.0887C28.4841 12.6251 27.8556 12.3644 27.2 12.3636V12.3636Z" fill="white"/>
<path d="M22.5637 14.5273C22.4817 14.5273 22.4031 14.4947 22.3451 14.4367L21.4716 13.5632C21.2252 13.3182 21.081 12.9888 21.0683 12.6415C21.0555 12.2943 21.175 11.9551 21.4028 11.6927C21.6305 11.4302 21.9494 11.264 22.295 11.2278C22.6406 11.1915 22.9871 11.2878 23.2644 11.4973L23.6776 11.8063C23.7432 11.8555 23.7866 11.9288 23.7982 12.0099C23.8097 12.0911 23.7886 12.1735 23.7394 12.2391C23.6903 12.3047 23.617 12.348 23.5359 12.3596C23.4547 12.3712 23.3723 12.3501 23.3067 12.3009L22.8935 11.9918C22.7411 11.8778 22.5513 11.8258 22.3622 11.8461C22.173 11.8665 21.9986 11.9577 21.874 12.1014C21.7493 12.2452 21.6838 12.4308 21.6905 12.6209C21.6971 12.811 21.7755 12.9915 21.9099 13.1262L22.7834 13.9997C22.8267 14.043 22.8562 14.0981 22.868 14.1582C22.8799 14.2183 22.8737 14.2805 22.8502 14.337C22.8266 14.3936 22.7868 14.4418 22.7358 14.4757C22.6848 14.5095 22.6249 14.5275 22.5637 14.5273Z" fill="#FFA100"/>
<path d="M21.6364 14.8364C21.5544 14.8364 21.4758 14.8038 21.4179 14.7458L20.9542 14.2822C20.4991 13.829 19.91 13.5345 19.2743 13.4424C19.1932 13.4308 19.1199 13.3874 19.0708 13.3217C19.0216 13.2561 19.0006 13.1737 19.0122 13.0925C19.0238 13.0114 19.0672 12.9381 19.1329 12.889C19.1985 12.8398 19.2809 12.8188 19.3621 12.8304C20.13 12.9417 20.8416 13.2975 21.3913 13.8451L21.8549 14.3088C21.8981 14.352 21.9275 14.4071 21.9395 14.467C21.9514 14.527 21.9453 14.5891 21.9219 14.6456C21.8985 14.7021 21.8589 14.7503 21.8081 14.7843C21.7572 14.8183 21.6975 14.8364 21.6364 14.8364Z" fill="#FFA100"/>
<path d="M20.0909 9.58182C20.4323 9.58182 20.7091 9.30505 20.7091 8.96364C20.7091 8.62223 20.4323 8.34546 20.0909 8.34546C19.7495 8.34546 19.4727 8.62223 19.4727 8.96364C19.4727 9.30505 19.7495 9.58182 20.0909 9.58182Z" fill="#7F96D1"/>
<path d="M20.4 26.2727C20.7414 26.2727 21.0182 25.996 21.0182 25.6546C21.0182 25.3131 20.7414 25.0364 20.4 25.0364C20.0586 25.0364 19.7818 25.3131 19.7818 25.6546C19.7818 25.996 20.0586 26.2727 20.4 26.2727Z" fill="#7F96D1"/>
<path d="M24.4182 8.65458C24.7596 8.65458 25.0364 8.37781 25.0364 8.03639C25.0364 7.69498 24.7596 7.41821 24.4182 7.41821C24.0768 7.41821 23.8 7.69498 23.8 8.03639C23.8 8.37781 24.0768 8.65458 24.4182 8.65458Z" fill="#7F96D1"/>
<path d="M21.3273 29.9818C21.6687 29.9818 21.9455 29.7051 21.9455 29.3637C21.9455 29.0223 21.6687 28.7455 21.3273 28.7455C20.9859 28.7455 20.7091 29.0223 20.7091 29.3637C20.7091 29.7051 20.9859 29.9818 21.3273 29.9818Z" fill="#7F96D1"/>
<path d="M26.5818 25.9637C26.9232 25.9637 27.2 25.6869 27.2 25.3455C27.2 25.0041 26.9232 24.7273 26.5818 24.7273C26.2404 24.7273 25.9637 25.0041 25.9637 25.3455C25.9637 25.6869 26.2404 25.9637 26.5818 25.9637Z" fill="#7F96D1"/>
<path d="M21.3273 5.56363C21.6687 5.56363 21.9455 5.28686 21.9455 4.94545C21.9455 4.60404 21.6687 4.32727 21.3273 4.32727C20.9859 4.32727 20.7091 4.60404 20.7091 4.94545C20.7091 5.28686 20.9859 5.56363 21.3273 5.56363Z" fill="#7F96D1"/>
</svg>
